<mxfile host="app.diagrams.net" modified="2023-12-18T12:40:49.826Z" agent="Mozilla/5.0 (Windows NT 10.0; Win64; x64) AppleWebKit/537.36 (KHTML, like Gecko) Chrome/120.0.0.0 Safari/537.36" etag="RpD64-LUc2CwfvJ-O2J6" version="22.1.11" type="github">
  <diagram id="FU7NUu3CbukTYbxRIidO" name="Page-1">
    <mxGraphModel dx="1434" dy="780" grid="1" gridSize="10" guides="1" tooltips="1" connect="1" arrows="1" fold="1" page="1" pageScale="1" pageWidth="827" pageHeight="1169" math="0" shadow="0">
      <root>
        <mxCell id="0" />
        <mxCell id="1" parent="0" />
        <mxCell id="L5Kj5VrWHoerJ_uzMM_--1" value="Pool" style="swimlane;html=1;childLayout=stackLayout;resizeParent=1;resizeParentMax=0;horizontal=0;startSize=20;horizontalStack=0;whiteSpace=wrap;" vertex="1" parent="1">
          <mxGeometry width="760" height="240" as="geometry" />
        </mxCell>
        <mxCell id="L5Kj5VrWHoerJ_uzMM_--2" value="Logisticien" style="swimlane;html=1;startSize=20;horizontal=0;" vertex="1" parent="L5Kj5VrWHoerJ_uzMM_--1">
          <mxGeometry x="20" width="740" height="240" as="geometry" />
        </mxCell>
      </root>
    </mxGraphModel>
  </diagram>
</mxfile>
